<svg xmlns="http://www.w3.org/2000/svg" viewBox="0 0 96.9 33"><defs><style>.cls-1{fill:#fff;}</style></defs><g id="Layer_2" data-name="Layer 2"><g id="Layer_1-2" data-name="Layer 1"><path class="cls-1" d="M80.2,10.27H78.09V22.86H80.2c4.15,0,5.9-2.14,5.9-6.3S84.35,10.27,80.2,10.27Z"/><path class="cls-1" d="M0,0V33H96.9V0ZM42.49,27.08l-5-8.48h-2v8.48H30.21v-21h9.16c5,0,7.71,2.2,7.71,6.08a5.9,5.9,0,0,1-4.22,6l5.62,9Zm26.4-3.18s-2.69,3.67-9,3.67S49.79,23.29,49.79,16.5,53.92,5.62,60,5.62s8.16,3.92,8.44,4.59L64,12.29a4.15,4.15,0,0,0-4-2.45c-2.56,0-4.86,1.77-4.86,6.72s2.17,6.73,4.8,6.73a5.1,5.1,0,0,0,3.7-1.16V18.64H59.48V14.58h9.41Zm12.16,3.18H72.86v-21h8.19c6.61,0,10.52,3.91,10.52,10.51S87.66,27.08,81.05,27.08Z"/><path class="cls-1" d="M38.76,10H35.4v4.6h3.36c1.65,0,2.88-.67,2.88-2.32S40.41,10,38.76,10Z"/></g></g></svg>